name Walk1.mot
datacolumns 19
datarows 20
range 1.26000000 1.27900000
endheader

                time	   L_ground_force_vx	   L_ground_force_vy	   L_ground_force_vz	   L_ground_force_px	   L_ground_force_py	   L_ground_force_pz	   R_ground_force_vx	   R_ground_force_vy	   R_ground_force_vz	   R_ground_force_px	   R_ground_force_py	   R_ground_force_pz	   L_ground_torque_x	   L_ground_torque_y	   L_ground_torque_z	   R_ground_torque_x	   R_ground_torque_y	   R_ground_torque_z	
          1.26000000	         -9.98311549	         88.90818951	         -8.05322162	         -0.13779448	          0.00000000	         -0.00526767	          0.00000000	         -0.00000000	         -0.00000000	         -0.00000000	          0.00000000	         -0.00000000	          0.00000000	          0.06247203	          0.00000000	          0.00000000	         -0.00000000	          0.00000000	
          1.26100000	        -11.14329747	         97.03983080	         -8.73983327	         -0.14596725	          0.00000000	         -0.00552089	          0.00000000	         -0.00000000	         -0.00000000	         -0.00000000	          0.00000000	         -0.00000000	          0.00000000	          0.07864018	          0.00000000	          0.00000000	         -0.00000000	          0.00000000	
          1.26200000	        -12.36526860	        105.52633946	         -9.45415362	         -0.15429665	          0.00000000	         -0.00577483	          0.00000000	         -0.00000000	         -0.00000000	         -0.00000000	          0.00000000	         -0.00000000	          0.00000000	          0.09598597	          0.00000000	          0.00000000	         -0.00000000	          0.00000000	
          1.26300000	        -13.64972400	        114.36564303	        -10.19580742	         -0.16276282	          0.00000000	         -0.00602852	          0.00000000	         -0.00000000	         -0.00000000	         -0.00000000	          0.00000000	         -0.00000000	          0.00000000	          0.11454721	          0.00000000	          0.00000000	         -0.00000000	          0.00000000	
          1.26400000	        -14.99716535	        123.55401949	        -10.96427166	         -0.17134352	          0.00000000	         -0.00628089	          0.00000000	         -0.00000000	         -0.00000000	         -0.00000000	          0.00000000	         -0.00000000	          0.00000000	          0.13436019	          0.00000000	          0.00000000	         -0.00000000	          0.00000000	
          1.26500000	        -16.40788079	        133.08595927	        -11.75886402	         -0.18001395	          0.00000000	         -0.00653078	          0.00000000	         -0.00000000	         -0.00000000	         -0.00000000	          0.00000000	         -0.00000000	          0.00000000	          0.15545939	          0.00000000	          0.00000000	         -0.00000000	          0.00000000	
          1.26600000	        -17.88192397	        142.95402196	        -12.57873086	         -0.18874664	          0.00000000	         -0.00677691	          0.00000000	         -0.00000000	         -0.00000000	         -0.00000000	          0.00000000	         -0.00000000	          0.00000000	          0.17787720	          0.00000000	          0.00000000	         -0.00000000	          0.00000000	
          1.26700000	        -19.41909194	        153.14868759	        -13.42283484	         -0.19751131	          0.00000000	         -0.00701792	          0.00000000	         -0.00000000	         -0.00000000	         -0.00000000	          0.00000000	         -0.00000000	          0.00000000	          0.20164358	          0.00000000	          0.00000000	         -0.00000000	          0.00000000	
          1.26800000	        -21.01890923	        163.65821569	        -14.28994758	         -0.20627516	          0.00000000	         -0.00725238	          0.00000000	         -0.00000000	         -0.00000000	         -0.00000000	          0.00000000	         -0.00000000	          0.00000000	          0.22678558	          0.00000000	          0.00000000	         -0.00000000	          0.00000000	
          1.26900000	        -22.68063578	        174.46854807	        -15.17866059	         -0.21500446	          0.00000000	         -0.00747890	          0.00000000	         -0.00000000	         -0.00000000	         -0.00000000	          0.00000000	         -0.00000000	          0.00000000	          0.25332660	          0.00000000	          0.00000000	         -0.00000000	          0.00000000	
          1.27000000	        -24.40330347	        185.56327499	        -16.08741568	         -0.22366692	          0.00000000	         -0.00769631	          0.00000000	         -0.00000000	         -0.00000000	         -0.00000000	          0.00000000	         -0.00000000	          0.00000000	          0.28128509	          0.00000000	          0.00000000	         -0.00000000	          0.00000000	
          1.27100000	        -26.18576210	        196.92364718	        -17.01453630	         -0.23223321	          0.00000000	         -0.00790373	          0.00000000	         -0.00000000	         -0.00000000	         -0.00000000	          0.00000000	         -0.00000000	          0.00000000	          0.31067313	          0.00000000	          0.00000000	         -0.00000000	          0.00000000	
          1.27200000	        -28.02672148	        208.52862706	        -17.95824712	         -0.24067709	          0.00000000	         -0.00810055	          0.00000000	         -0.00000000	         -0.00000000	         -0.00000000	          0.00000000	         -0.00000000	          0.00000000	          0.34149501	          0.00000000	          0.00000000	         -0.00000000	          0.00000000	
          1.27300000	        -29.92479172	        220.35500272	        -18.91668259	         -0.24897520	          0.00000000	         -0.00828638	          0.00000000	         -0.00000000	         -0.00000000	         -0.00000000	          0.00000000	         -0.00000000	          0.00000000	          0.37374616	          0.00000000	          0.00000000	         -0.00000000	          0.00000000	
          1.27400000	        -31.87852221	        232.37758923	        -19.88788478	         -0.25710684	          0.00000000	         -0.00846100	          0.00000000	         -0.00000000	         -0.00000000	         -0.00000000	          0.00000000	         -0.00000000	          0.00000000	          0.40741236	          0.00000000	          0.00000000	         -0.00000000	          0.00000000	
          1.27500000	        -33.88643416	        244.56953152	        -20.86978854	         -0.26505382	          0.00000000	         -0.00862439	          0.00000000	         -0.00000000	         -0.00000000	         -0.00000000	          0.00000000	         -0.00000000	          0.00000000	          0.44246973	          0.00000000	          0.00000000	         -0.00000000	          0.00000000	
          1.27600000	        -35.94704099	        256.90271122	        -21.86019351	         -0.27280025	          0.00000000	         -0.00877663	          0.00000000	         -0.00000000	         -0.00000000	         -0.00000000	          0.00000000	         -0.00000000	          0.00000000	          0.47888504	          0.00000000	          0.00000000	         -0.00000000	          0.00000000	
          1.27700000	        -38.05885038	        269.34824237	        -22.85672472	         -0.28033240	          0.00000000	         -0.00891796	          0.00000000	         -0.00000000	         -0.00000000	         -0.00000000	          0.00000000	         -0.00000000	          0.00000000	          0.51661653	          0.00000000	          0.00000000	         -0.00000000	          0.00000000	
          1.27800000	        -40.22034422	        281.87702228	        -23.85678693	         -0.28763855	          0.00000000	         -0.00904868	          0.00000000	         -0.00000000	         -0.00000000	         -0.00000000	          0.00000000	         -0.00000000	          0.00000000	          0.55561485	          0.00000000	          0.00000000	         -0.00000000	          0.00000000	
          1.27900000	        -42.42993642	        294.46029087	        -24.85752013	         -0.29470888	          0.00000000	         -0.00916918	          0.00000000	         -0.00000000	         -0.00000000	         -0.00000000	          0.00000000	         -0.00000000	          0.00000000	          0.59582396	          0.00000000	          0.00000000	         -0.00000000	          0.00000000	
